<?xml version="1.0" standalone="no"?>
<!DOCTYPE svg PUBLIC "-//W3C//DTD SVG 20010904//EN"
 "http://www.w3.org/TR/2001/REC-SVG-20010904/DTD/svg10.dtd">
<svg version="1.0" xmlns="http://www.w3.org/2000/svg"
 width="28.000000pt" height="28.000000pt" viewBox="70 160 360.000000 260.000000"
 preserveAspectRatio="xMidYMid meet">

<g transform="translate(0.000000,500.000000) scale(0.100000,-0.100000)"
fill="#000000" stroke="none">
<path d="M2434 3641 c-72 -53 -880 -875 -893 -908 -8 -19 -10 -44 -6 -60 4
-19 121 -143 341 -363 184 -185 334 -341 334 -348 0 -19 -80 -72 -110 -72 -15
0 -45 13 -66 29 -75 55 -732 725 -739 753 -4 15 -4 37 0 50 4 13 152 168 328
346 277 277 320 324 311 340 -10 15 -35 17 -248 20 -198 2 -243 0 -270 -13
-18 -9 -177 -161 -354 -338 -353 -356 -357 -360 -314 -429 38 -59 1294 -1306
1325 -1313 54 -14 79 4 255 178 l172 171 173 -171 c175 -174 200 -192 255
-179 38 10 1328 1300 1338 1339 3 15 3 39 -1 54 -8 34 -634 665 -681 688 -27
13 -72 15 -270 13 -213 -3 -238 -5 -248 -20 -9 -16 34 -63 311 -340 352 -352
355 -356 315 -420 -36 -58 -734 -746 -764 -753 -16 -4 -40 -4 -55 0 -33 7
-741 709 -769 760 -12 22 -15 41 -10 61 8 33 322 355 370 381 17 9 38 12 55 8
15 -4 98 -78 203 -183 187 -185 205 -211 178 -263 -7 -13 -73 -85 -146 -159
l-134 -136 140 -139 140 -140 279 280 c182 182 282 290 286 308 4 15 4 39 0
55 -7 30 -870 903 -917 928 -40 21 -71 17 -114 -15z"/>
</g>
</svg>
